<?xml version="1.0" encoding="UTF-8" standalone="no"?>
<!-- Created with Inkscape (http://www.inkscape.org/) -->

<svg
   xmlns:dc="http://purl.org/dc/elements/1.1/"
   xmlns:cc="http://creativecommons.org/ns#"
   xmlns:rdf="http://www.w3.org/1999/02/22-rdf-syntax-ns#"
   xmlns:svg="http://www.w3.org/2000/svg"
   xmlns="http://www.w3.org/2000/svg"
   xmlns:sodipodi="http://sodipodi.sourceforge.net/DTD/sodipodi-0.dtd"
   xmlns:inkscape="http://www.inkscape.org/namespaces/inkscape"
   width="156.67216mm"
   height="42.32074mm"
   viewBox="0 0 156.67216 42.32074"
   version="1.1"
   id="svg1332"
   inkscape:version="0.92.0 r15299"
   sodipodi:docname="tbc bank.svg">
  <defs
     id="defs1326"><style
   id="style1334"
   type="text/css">
   <![CDATA[
    .fil0 {fill:#ffffff;fill-rule:nonzero}
    .fil1 {fill:#ffffff;fill-rule:nonzero}
   ]]>
  </style>

  
  
  
  
  
  
  
  
  
  
  
 </defs>
  <sodipodi:namedview
     id="base"
     pagecolor="#ffffff"
     bordercolor="#666666"
     borderopacity="1.0"
     inkscape:pageopacity="0.0"
     inkscape:pageshadow="2"
     inkscape:zoom="1.524558"
     inkscape:cx="294.18362"
     inkscape:cy="78.086459"
     inkscape:document-units="mm"
     inkscape:current-layer="layer1"
     showgrid="false"
     fit-margin-top="0"
     fit-margin-left="0"
     fit-margin-right="0"
     fit-margin-bottom="0"
     inkscape:window-width="1280"
     inkscape:window-height="744"
     inkscape:window-x="-4"
     inkscape:window-y="-4"
     inkscape:window-maximized="1" />
  <metadata
     id="metadata1329">
    <rdf:RDF>
      <cc:Work
         rdf:about="">
        <dc:format>image/svg+xml</dc:format>
        <dc:type
           rdf:resource="http://purl.org/dc/dcmitype/StillImage" />
        <dc:title></dc:title>
      </cc:Work>
    </rdf:RDF>
  </metadata>
  <g
     inkscape:label="Layer 1"
     inkscape:groupmode="layer"
     id="layer1"
     transform="translate(179.13371,-233.76225)">
    <g
       id="g1413"
       transform="translate(0.4999957,-0.49999891)">
      <polygon
         transform="matrix(0.02381832,0,0,0.02381832,-179.13808,234.7582)"
         style="clip-rule:evenodd;fill:#00a3e0;fill-opacity:1;fill-rule:nonzero;image-rendering:optimizeQuality;shape-rendering:geometricPrecision;text-rendering:geometricPrecision"
         class="fil0"
         points="2441,1420 2441,874 2267,874 2267,747 2771,747 2771,874 2596,874 2596,1420 "
         id="polygon1339" />
      <path
         style="clip-rule:evenodd;fill:#00a3e0;fill-opacity:1;fill-rule:nonzero;stroke-width:0.02381832;image-rendering:optimizeQuality;shape-rendering:geometricPrecision;text-rendering:geometricPrecision"
         inkscape:connector-curvature="0"
         class="fil0"
         d="m -103.96746,265.65056 c 0.30964,-0.11909 0.54782,-0.33346 0.69073,-0.61928 0.11909,-0.30963 0.19055,-0.73836 0.19055,-1.31 0,-0.57164 -0.0715,-1.00037 -0.19055,-1.28619 -0.14291,-0.28582 -0.38109,-0.50019 -0.71455,-0.61928 -0.30964,-0.11909 -0.80982,-0.16673 -1.4291,-0.16673 h -1.92928 v 4.16821 h 1.92928 c 0.6431,0 1.11946,-0.0476 1.45292,-0.16673 z m -0.35728,-6.74058 c 0.262,-0.1191 0.45255,-0.30964 0.57164,-0.57164 0.0953,-0.262 0.16673,-0.6431 0.16673,-1.19092 0,-0.524 -0.0714,-0.9051 -0.16673,-1.1671 -0.11909,-0.262 -0.30964,-0.45254 -0.57164,-0.57164 -0.28582,-0.0953 -0.66691,-0.16672 -1.21473,-0.16672 h -1.81019 v 3.83474 h 1.78637 c 0.54782,0 0.95273,-0.0715 1.23855,-0.16672 z m -0.83364,-6.35949 c 3.33457,0 5.00185,1.42909 5.00185,4.28729 0,1.02419 -0.21437,1.81019 -0.69073,2.40565 -0.47637,0.57164 -1.14328,0.88128 -2.00074,0.95274 1.07182,0.0476 1.92928,0.40491 2.52474,1.048 0.571641,0.6431 0.881279,1.54819 0.881279,2.71529 0,3.07256 -1.881649,4.62075 -5.621119,4.62075 h -5.85931 v -16.02972 z"
         id="path1341" />
      <path
         style="clip-rule:evenodd;fill:#00a3e0;fill-opacity:1;fill-rule:nonzero;stroke-width:0.02381832;image-rendering:optimizeQuality;shape-rendering:geometricPrecision;text-rendering:geometricPrecision"
         inkscape:connector-curvature="0"
         class="fil0"
         d="m -95.750142,266.77002 c -1.214734,-1.38146 -1.83401,-3.42984 -1.83401,-6.19276 0,-5.50203 2.453287,-8.26496 7.336042,-8.26496 1.238553,0 2.358014,0.19055 3.382202,0.54782 l -0.690732,2.92966 c -0.690731,-0.35728 -1.524372,-0.54782 -2.477105,-0.54782 -1.048006,0 -1.834011,0.16672 -2.358014,0.45254 -0.547821,0.30964 -0.928914,0.83364 -1.143279,1.59583 -0.214365,0.73837 -0.333456,1.83401 -0.333456,3.28693 0,1.45292 0.119091,2.52474 0.333456,3.26311 0.214365,0.73837 0.57164,1.26237 1.119461,1.54819 0.524003,0.30964 1.310008,0.45255 2.310377,0.45255 1.14328,0 2.096012,-0.23819 2.882017,-0.69073 l 0.666913,3.02492 c -1.071825,0.42873 -2.310377,0.61928 -3.69184,0.61928 -2.453287,0 -4.287297,-0.66691 -5.502032,-2.02456 z"
         id="path1343" />
      <path
         style="clip-rule:evenodd;fill:#00a3e0;fill-opacity:1;fill-rule:nonzero;stroke-width:0.02381832;image-rendering:optimizeQuality;shape-rendering:geometricPrecision;text-rendering:geometricPrecision"
         inkscape:connector-curvature="0"
         class="fil0"
         d="m -70.740906,266.81766 c 0.500185,-0.16673 0.85746,-0.47637 1.071825,-0.88128 0.214365,-0.42873 0.333456,-1.04801 0.333456,-1.85783 0,-0.80982 -0.119091,-1.45292 -0.333456,-1.88165 -0.214365,-0.42873 -0.595458,-0.73836 -1.14328,-0.90509 -0.524003,-0.16673 -1.310007,-0.262 -2.310377,-0.262 h -2.929653 v 6.07367 h 3.072563 c 0.976551,0 1.714919,-0.0953 2.238922,-0.28582 z m -0.500184,-7.52659 c 0.452548,-0.16673 0.762186,-0.42873 0.952732,-0.83364 0.190547,-0.38109 0.28582,-0.95273 0.28582,-1.6911 0,-0.73837 -0.09527,-1.28619 -0.262001,-1.6911 -0.190547,-0.3811 -0.476367,-0.66692 -0.905096,-0.80983 -0.42873,-0.16672 -1.024188,-0.23818 -1.834011,-0.23818 h -3.048745 v 5.50203 h 2.858198 c 0.85746,0 1.500555,-0.0714 1.953103,-0.23818 z m -1.691101,-6.74058 c 3.072563,0 4.596936,1.38146 4.596936,4.14438 0,1.09565 -0.214365,1.92929 -0.666913,2.54856 -0.42873,0.59546 -1.071825,0.92892 -1.881648,0.97655 1.048006,0.0476 1.857829,0.3811 2.429469,1.04801 0.57164,0.66691 0.85746,1.61965 0.85746,2.83438 0,3.00111 -1.786374,4.47784 -5.335304,4.47784 h -4.811301 v -16.02972 z"
         id="path1345" />
      <path
         style="clip-rule:evenodd;fill:#00a3e0;fill-opacity:1;fill-rule:nonzero;stroke-width:0.02381832;image-rendering:optimizeQuality;shape-rendering:geometricPrecision;text-rendering:geometricPrecision"
         inkscape:connector-curvature="0"
         class="fil0"
         d="m -59.33193,254.57504 -2.905835,8.64605 h 5.81167 z m -3.40602,10.12279 -1.310008,3.88238 h -1.857829 l 5.764034,-16.02972 h 1.643464 l 5.764033,16.02972 h -1.881647 l -1.310008,-3.88238 z"
         id="path1347" />
      <polygon
         transform="matrix(0.02381832,0,0,0.02381832,-179.13808,234.7582)"
         style="clip-rule:evenodd;fill:#00a3e0;fill-opacity:1;fill-rule:nonzero;image-rendering:optimizeQuality;shape-rendering:geometricPrecision;text-rendering:geometricPrecision"
         class="fil0"
         points="5426,1420 5426,747 5486,747 5831,1276 5831,747 5900,747 5900,1420 5841,1420 5495,891 5495,1420 "
         id="polygon1349" />
      <polygon
         transform="matrix(0.02381832,0,0,0.02381832,-179.13808,234.7582)"
         style="clip-rule:evenodd;fill:#00a3e0;fill-opacity:1;fill-rule:nonzero;image-rendering:optimizeQuality;shape-rendering:geometricPrecision;text-rendering:geometricPrecision"
         class="fil0"
         points="6509,747 6222,1076 6536,1420 6437,1420 6149,1086 6149,1420 6076,1420 6076,747 6149,747 6149,1067 6417,747 "
         id="polygon1351" />
      <path
         style="clip-rule:evenodd;fill:#00a3e0;fill-opacity:1;fill-rule:nonzero;stroke-width:0.02381832;image-rendering:optimizeQuality;shape-rendering:geometricPrecision;text-rendering:geometricPrecision"
         inkscape:connector-curvature="0"
         class="fil1"
         d="m -158.60669,257.64761 c 0.19055,1.92928 0.28582,2.95347 -1.28619,4.62075 -1.64346,1.73874 -5.76403,4.93039 -9.97987,7.35986 -1.78638,1.02419 -4.19203,2.26274 -6.00222,2.92965 -1.35764,0.47637 -2.47711,0.69074 -3.04875,-0.28582 -0.35727,-0.64309 -0.19054,-1.21473 0,-1.71492 1.47674,-3.97765 5.69258,-11.40897 8.45551,-16.24409 0.28582,-0.47637 0.57164,-1.00037 0.85746,-1.50055 4.23966,-7.31223 9.86078,-16.26792 10.98024,-17.72083 0.14291,-0.19055 0.45255,-0.42873 0.71455,-0.28582 0.21437,0.11909 0.21437,0.38109 0.19055,0.57164 0,0.0238 -0.0715,0.28582 -0.0953,0.40491 -1.83401,7.38368 -1.61965,14.62445 -0.78601,21.86522 z"
         id="path1353" />
      <path
         style="clip-rule:evenodd;fill:#00a3e0;fill-opacity:1;fill-rule:nonzero;stroke-width:0.02381832;image-rendering:optimizeQuality;shape-rendering:geometricPrecision;text-rendering:geometricPrecision"
         inkscape:connector-curvature="0"
         class="fil1"
         d="m -152.41392,259.91035 c -1.78638,-0.80983 -2.71529,-1.23856 -3.35839,-3.42984 -0.69073,-2.28656 -1.38146,-7.45514 -1.38146,-12.31407 0,-2.04838 0.11909,-4.76367 0.45255,-6.66913 0.262,-1.40528 0.64309,-2.50093 1.78637,-2.50093 0.71455,0 1.11946,0.45255 1.47674,0.88128 2.71529,3.23929 7.0264,10.62297 9.83696,15.41045 0.28582,0.50019 0.57164,1.00037 0.85746,1.52438 4.21585,7.33604 9.17006,16.67282 9.86079,18.3401 0.0953,0.23819 0.16673,0.61928 -0.0953,0.78601 -0.23818,0.11909 -0.45254,-0.0238 -0.59545,-0.11909 -0.0238,-0.0238 -0.21437,-0.21437 -0.30964,-0.28582 -5.47822,-5.28767 -11.86153,-8.74133 -18.53065,-11.62334 z"
         id="path1355" />
      <path
         style="clip-rule:evenodd;fill:#00a3e0;fill-opacity:1;fill-rule:nonzero;stroke-width:0.02381832;image-rendering:optimizeQuality;shape-rendering:geometricPrecision;text-rendering:geometricPrecision"
         inkscape:connector-curvature="0"
         class="fil1"
         d="m -157.48723,264.15001 c 1.59583,-1.14328 2.42947,-1.73874 4.66839,-1.21474 2.31038,0.57164 7.12168,2.54856 11.36134,4.97803 1.76256,1.02419 4.04912,2.47711 5.52585,3.71566 1.09565,0.92891 1.83401,1.81019 1.28619,2.78674 -0.38109,0.6431 -0.95273,0.76219 -1.50055,0.85746 -4.16821,0.71455 -12.71899,0.76219 -18.26865,0.80983 -0.57164,0 -1.1671,0 -1.76256,0 -8.4555,-0.0238 -19.00702,-0.40492 -20.81721,-0.6431 -0.262,-0.0476 -0.61928,-0.16673 -0.59546,-0.47637 0,-0.262 0.21437,-0.38109 0.38109,-0.45254 0.0476,-0.0238 0.28582,-0.0953 0.40492,-0.1191 7.31222,-2.11983 13.48116,-5.90694 19.31665,-10.24187 z"
         id="path1357" />
    </g>
  </g>
</svg>
